<?xml version="1.0" encoding="utf-8"?>
<!-- Generator: Adobe Illustrator 22.1.0, SVG Export Plug-In . SVG Version: 6.00 Build 0)  -->
<svg version="1.1" id="Capa_1" xmlns="http://www.w3.org/2000/svg" xmlns:xlink="http://www.w3.org/1999/xlink" x="0px" y="0px"
	 viewBox="0 0 138 48" style="enable-background:new 0 0 138 48;" xml:space="preserve">
<style type="text/css">
	.st0{clip-path:url(#SVGID_2_);}
	.st1{fill:#FFFFFF;}
	.st2{clip-path:url(#SVGID_4_);}
	.st3{fill-rule:evenodd;clip-rule:evenodd;fill:#006A65;}
	.st4{fill:#26817C;}
	.st5{fill:#00ADEE;}
	.st6{clip-path:url(#SVGID_6_);}
	.st7{fill:#F5F6F6;}
	.st8{clip-path:url(#SVGID_8_);}
	.st9{clip-path:url(#SVGID_10_);}
	.st10{fill:#676767;}
	.st11{fill:#989898;}
	.st12{fill:#EA553E;}
	.st13{clip-path:url(#SVGID_12_);}
	.st14{clip-path:url(#SVGID_14_);}
	.st15{clip-path:url(#SVGID_16_);}
	.st16{clip-path:url(#SVGID_18_);}
	.st17{clip-path:url(#SVGID_20_);}
	.st18{fill:#56595E;}
	.st19{fill:#4C5055;}
	.st20{fill-rule:evenodd;clip-rule:evenodd;fill:#F5F6F6;}
	.st21{clip-path:url(#SVGID_22_);}
	.st22{clip-path:url(#SVGID_24_);}
	.st23{fill:#006A65;}
</style>
<g>
	<path class="st3" d="M2,3.4V47h32.2c1.5,0,2-0.7,2-2V1.4H4.1C2.4,1.3,2,2.2,2,3.4z M7.8,10h8V4.4h6.2V10h8v6h-8v3.8H35v0v4.9
		l-0.7-0.6h-10v3.1h7.3l0.8-0.5v5.1l-0.7-0.5h-7.3v3.2h10l0.7-0.6v4.8h-0.6H22.1v5.7h-6.2v-5.7h-2.5l0.5-0.7v-6.7H8.1v6.7l0.1,0.2
		l0.4,0.6H3.1l0.4-0.6h0l0.1-0.2V20.5l0-0.1h0l-0.5-0.7h0.6v0h4.4v0h0.6l-0.5,0.7l-0.1,0.1v6.7h5.8v-6.7l-0.5-0.7h0.5v0h2V16h-8V10z
		"/>
	<path class="st3" d="M57,31.9c1.3,0,2.4-0.4,3.2-1.3c0.8-0.9,1.3-2,1.3-3.3c0-1.3-0.4-2.5-1.3-3.3c-0.8-0.8-1.9-1.3-3.2-1.3
		c-1.3,0-2.4,0.4-3.2,1.3c-0.8,0.9-1.3,2-1.3,3.3c0,1.3,0.5,2.5,1.3,3.3C54.7,31.5,55.7,31.9,57,31.9z M57,24.6
		c1.4,0,2.4,1.1,2.4,2.7c0,1.6-1,2.7-2.4,2.7c-1.4,0-2.4-1.1-2.4-2.7C54.7,25.7,55.7,24.6,57,24.6z"/>
	<path class="st3" d="M65.5,30.2c-0.9,0-1.8-0.4-2.8-1.1v2c0.9,0.6,1.8,0.9,2.9,0.9c2.1,0,3.3-1,3.3-2.6c0-1-0.4-1.7-1.1-2.2
		c-0.6-0.4-1.3-0.7-2.1-0.9c-0.8-0.3-1.1-0.6-1.1-1c0-0.5,0.4-0.7,1.2-0.7c0.8,0,1.7,0.3,2.7,0.9v-1.8c-0.9-0.5-1.9-0.7-2.8-0.7
		c-1.9,0-3.1,1.1-3.1,2.6c0,1.6,1,2.4,3.1,3.1c0.7,0.3,1.1,0.4,1.1,1C66.7,29.9,66.3,30.2,65.5,30.2z"/>
	<path class="st3" d="M76.4,25.5c0-1.8-1.1-2.7-3.3-2.7H70v8.9h2.1v-3.5h0.8C75.2,28.2,76.4,27.3,76.4,25.5z M72.1,24.5h1
		c0.8,0,1.1,0.4,1.1,1c0,0.7-0.4,1-1.2,1h-1V24.5z"/>
	<rect x="77.6" y="22.8" class="st3" width="2.1" height="8.9"/>
	<polygon class="st3" points="85.6,31.7 85.6,24.5 88.4,24.5 88.4,22.8 80.7,22.8 80.7,24.5 83.4,24.5 83.4,31.7 	"/>
	<path class="st3" d="M94.2,22.8h-2.4l-3.6,8.9h2.2l0.7-1.7h3.6l0.6,1.7h2.2L94.2,22.8z M91.7,28.5l1.3-3.4l1.2,3.4H91.7z"/>
	<polygon class="st3" points="100.1,22.8 98,22.8 98,31.7 103.7,31.7 103.7,30 100.1,30 	"/>
	<polygon class="st3" points="42.6,31.7 45.6,31.7 45.2,31.4 45.2,27.8 49.1,27.8 49.1,31.4 48.7,31.7 51.7,31.7 51.3,31.4 
		51.3,22.5 51.7,22.2 51.3,22.2 49.1,22.2 48.7,22.2 49.1,22.5 49.1,26.1 45.2,26.1 45.2,22.5 45.6,22.2 45.2,22.2 43,22.2 
		42.6,22.2 43,22.5 43,31.4 	"/>
	<polygon class="st3" points="60.8,35.5 58,42.1 55.5,35.5 52.7,35.5 57.4,46.9 58.5,46.9 63.6,35.5 	"/>
	<path class="st3" d="M65,35.5l-4.4,11.3h2.7l0.8-2.2h4.4l0.7,2.2h2.7l-4-11.3H65z M64.8,42.7l1.6-4.3l1.4,4.3H64.8z"/>
	<polygon class="st3" points="80.3,42.2 74.7,35.5 72.4,35.5 72.4,46.8 75,46.8 75,39.7 80.8,46.8 82.9,46.8 82.9,35.5 80.3,35.5 	
		"/>
	<path class="st3" d="M89.9,42.8h1.4v1.4c-0.5,0.2-1,0.3-1.5,0.3c-1.9,0-3.1-1.4-3.1-3.5c0-2.2,1.3-3.5,3.4-3.5
		c1.1,0,2.3,0.4,3.7,1.1v-2.5c-1.3-0.7-2.5-1-3.9-1c-3.6,0-5.9,2.4-5.9,5.9c0,1.7,0.6,3.2,1.6,4.3c1,1,2.4,1.6,4,1.6
		c1.7,0,3.1-0.5,4.3-1.5v-4.7h-4.1V42.8z"/>
	<polygon class="st3" points="98,42 102.1,42 102.1,39.9 98,39.9 98,37.6 102.3,37.6 102.3,35.5 95.4,35.5 95.4,46.8 102.4,46.8 
		102.4,44.7 98,44.7 	"/>
	<polygon class="st3" points="106.3,35.5 103.7,35.5 103.7,46.8 110.7,46.8 110.7,44.6 106.3,44.6 	"/>
	<rect x="111.6" y="35.5" class="st3" width="2.7" height="11.3"/>
	<path class="st3" d="M118.1,41.1c0-2.2,1.3-3.5,3.4-3.5c1.2,0,2.3,0.4,3.5,1.2v-2.7c-1.2-0.6-2.3-0.9-3.6-0.9
		c-3.6,0-5.9,2.4-5.9,5.9c0,1.7,0.6,3.2,1.6,4.3c1,1,2.4,1.6,4,1.6c1.4,0,2.7-0.4,4-1.1v-2.7c-1.2,0.9-2.5,1.4-3.8,1.4
		C119.3,44.6,118.1,43.2,118.1,41.1z"/>
	<path class="st3" d="M135.3,36.9c-1-1.1-2.4-1.6-4-1.6c-1.6,0-3,0.5-4,1.6c-1.1,1.1-1.6,2.6-1.6,4.2c0,1.7,0.6,3.1,1.6,4.2
		c1,1.1,2.4,1.6,4,1.6c1.6,0,3-0.5,4-1.6c1.1-1.1,1.6-2.5,1.6-4.2C136.9,39.5,136.4,38,135.3,36.9z M131.3,44.6c-1.7,0-3-1.4-3-3.5
		c0-2,1.2-3.5,3-3.5c1.7,0,3,1.4,3,3.5C134.2,43.2,133,44.6,131.3,44.6z"/>
	<polygon class="st3" points="45.9,35.4 43.2,35.4 42.8,35.4 43.2,35.8 43.2,46.4 42.8,46.8 43.2,46.8 45.9,46.8 51.4,46.8 
		51.8,46.8 51.8,44.5 51.8,44.1 51.4,44.5 45.9,44.5 45.9,42 49.8,42 50.1,42.3 50.1,42 50.1,39.9 50.1,39.6 49.8,39.9 45.9,39.9 
		45.9,37.7 51.4,37.7 51.8,38.1 51.8,37.7 51.8,35.4 51.4,35.4 	"/>
	<polygon class="st3" points="82.6,17.4 80,17.4 80,12 78.5,12 78.5,18.7 82.6,18.7 	"/>
	<rect x="83.3" y="12" class="st3" width="1.6" height="6.7"/>
	<polygon class="st3" points="92.9,18.7 94.5,18.7 94.5,13.3 96.6,13.3 96.6,12 90.9,12 90.9,13.3 92.9,13.3 	"/>
	<path class="st3" d="M97.6,18.7l0.5-1.3h2.6l0.4,1.3h1.6l-2.4-6.7h-1.8L96,18.7H97.6z M99.5,13.7l0.9,2.6h-1.8L99.5,13.7z"/>
	<path class="st3" d="M88.2,16.2c0.4,0.1,0.6,0.3,0.7,0.3c0.1,0.1,0.1,0.2,0.1,0.4c0,0.2-0.1,0.3-0.2,0.4c-0.2,0.1-0.4,0.1-0.7,0.1
		c-0.3,0-0.6-0.1-0.9-0.2c-0.3-0.1-0.7-0.3-1.2-0.7v1.5c0.3,0.2,0.7,0.4,1,0.5c0.4,0.1,0.7,0.2,1.1,0.2c0.8,0,1.3-0.2,1.8-0.5
		c0.4-0.4,0.6-0.8,0.6-1.5c0-0.4-0.1-0.7-0.2-1c-0.1-0.3-0.3-0.5-0.6-0.7c-0.3-0.2-0.7-0.4-1.2-0.6c-0.1,0-0.2-0.1-0.3-0.1
		c-0.3-0.1-0.5-0.2-0.6-0.4c-0.1-0.1-0.2-0.3-0.2-0.4c0-0.2,0.1-0.3,0.2-0.4c0.2-0.1,0.4-0.1,0.7-0.1c0.3,0,0.6,0.1,0.9,0.2
		c0.3,0.1,0.7,0.3,1.1,0.5v-1.4c-0.3-0.2-0.7-0.3-1-0.4c-0.3-0.1-0.7-0.1-1-0.1c-0.7,0-1.2,0.2-1.7,0.5c-0.4,0.4-0.6,0.8-0.6,1.4
		c0,0.5,0.2,1,0.5,1.3C86.8,15.5,87.4,15.9,88.2,16.2z"/>
	<path class="st3" d="M73.4,17.4H76l0.4,1.3h1.6L75.7,12h-1.8l-2.7,6.7h1.6L73.4,17.4z M74.8,13.7l0.9,2.6h-1.8L74.8,13.7z"/>
	<polygon class="st3" points="61.1,18.7 62.7,18.7 62.7,13.3 64.7,13.3 64.7,12 59,12 59,13.3 61.1,13.3 	"/>
	<path class="st3" d="M55.5,18.8c0.9,0,1.6-0.3,2.1-0.8c0.5-0.5,0.8-1.3,0.8-2.2V12h-1.5v3.8c0,0.5-0.1,0.9-0.3,1.2
		c-0.2,0.3-0.6,0.4-1,0.4c-0.4,0-0.8-0.1-1-0.4c-0.2-0.3-0.3-0.7-0.3-1.2V12h-1.5v3.8c0,0.9,0.3,1.7,0.8,2.2
		C53.9,18.6,54.6,18.8,55.5,18.8z"/>
	<path class="st3" d="M68.2,18.8c0.9,0,1.6-0.3,2.1-0.8c0.5-0.5,0.8-1.3,0.8-2.2V12h-1.5v3.8c0,0.5-0.1,0.9-0.3,1.2
		c-0.2,0.3-0.6,0.4-1,0.4c-0.4,0-0.8-0.1-1-0.4c-0.2-0.3-0.3-0.7-0.3-1.2V12h-1.5v3.8c0,0.9,0.3,1.7,0.8,2.2
		C66.6,18.6,67.3,18.8,68.2,18.8z"/>
	<polygon class="st3" points="51.8,10.1 49,10.1 49.4,10.5 47.2,13.5 45,10.4 45.4,10.1 42.6,10.1 43.1,10.5 43.1,18.3 42.6,18.7 
		45.4,18.7 45,18.3 45,13.3 47.2,16.4 49.5,13.3 49.5,18.3 49,18.7 51.8,18.7 51.4,18.3 51.4,10.5 	"/>
	<polygon class="st3" points="19.9,37.9 19.9,20.6 19.1,19.4 18.3,20.5 18.3,37.9 19.1,38.9 	"/>
</g>
</svg>
